<mxfile host="Electron" agent="Mozilla/5.0 (Windows NT 10.0; Win64; x64) AppleWebKit/537.36 (KHTML, like Gecko) draw.io/26.2.15 Chrome/134.0.6998.205 Electron/35.2.1 Safari/537.36" version="26.2.15">
  <diagram name="Page-1" id="c37626ed-c26b-45fb-9056-f9ebc6bb27b6">
    <mxGraphModel dx="1713" dy="1842" grid="1" gridSize="10" guides="1" tooltips="1" connect="1" arrows="1" fold="1" page="1" pageScale="1" pageWidth="1100" pageHeight="850" background="none" math="0" shadow="0">
      <root>
        <mxCell id="0" />
        <mxCell id="1" parent="0" />
        <mxCell id="pIM4Py4oEkjCRGaLHzun-42" style="edgeStyle=orthogonalEdgeStyle;rounded=0;orthogonalLoop=1;jettySize=auto;html=1;exitX=1;exitY=0.5;exitDx=0;exitDy=0;exitPerimeter=0;entryX=0;entryY=0.25;entryDx=0;entryDy=0;" edge="1" parent="1" source="pIM4Py4oEkjCRGaLHzun-1" target="pIM4Py4oEkjCRGaLHzun-5">
          <mxGeometry relative="1" as="geometry" />
        </mxCell>
        <mxCell id="pIM4Py4oEkjCRGaLHzun-45" value="10.0.0.2" style="edgeLabel;html=1;align=center;verticalAlign=middle;resizable=0;points=[];" vertex="1" connectable="0" parent="pIM4Py4oEkjCRGaLHzun-42">
          <mxGeometry x="-0.6628" y="-2" relative="1" as="geometry">
            <mxPoint x="-1" as="offset" />
          </mxGeometry>
        </mxCell>
        <mxCell id="pIM4Py4oEkjCRGaLHzun-1" value="H2" style="shape=mxgraph.cisco.computers_and_peripherals.ibm_mainframe;sketch=0;html=1;pointerEvents=1;dashed=0;fillColor=#036897;strokeColor=#ffffff;strokeWidth=2;verticalLabelPosition=bottom;verticalAlign=top;align=center;outlineConnect=0;fontSize=22;" vertex="1" parent="1">
          <mxGeometry x="90" y="329" width="50" height="70" as="geometry" />
        </mxCell>
        <mxCell id="pIM4Py4oEkjCRGaLHzun-2" value="H3" style="shape=mxgraph.cisco.computers_and_peripherals.ibm_mainframe;sketch=0;html=1;pointerEvents=1;dashed=0;fillColor=#036897;strokeColor=#ffffff;strokeWidth=2;verticalLabelPosition=bottom;verticalAlign=top;align=center;outlineConnect=0;fontSize=22;" vertex="1" parent="1">
          <mxGeometry x="90" y="520" width="50" height="70" as="geometry" />
        </mxCell>
        <mxCell id="pIM4Py4oEkjCRGaLHzun-39" style="edgeStyle=orthogonalEdgeStyle;rounded=0;orthogonalLoop=1;jettySize=auto;html=1;exitX=1;exitY=0.5;exitDx=0;exitDy=0;exitPerimeter=0;entryX=0.5;entryY=0;entryDx=0;entryDy=0;" edge="1" parent="1" source="pIM4Py4oEkjCRGaLHzun-3" target="pIM4Py4oEkjCRGaLHzun-5">
          <mxGeometry relative="1" as="geometry" />
        </mxCell>
        <mxCell id="pIM4Py4oEkjCRGaLHzun-44" value="10.0.0.1" style="edgeLabel;html=1;align=center;verticalAlign=middle;resizable=0;points=[];" vertex="1" connectable="0" parent="pIM4Py4oEkjCRGaLHzun-39">
          <mxGeometry x="-0.7247" y="-2" relative="1" as="geometry">
            <mxPoint x="-1" as="offset" />
          </mxGeometry>
        </mxCell>
        <mxCell id="pIM4Py4oEkjCRGaLHzun-3" value="H1" style="shape=mxgraph.cisco.computers_and_peripherals.ibm_mainframe;sketch=0;html=1;pointerEvents=1;dashed=0;fillColor=#036897;strokeColor=#ffffff;strokeWidth=2;verticalLabelPosition=bottom;verticalAlign=top;align=center;outlineConnect=0;fontSize=22;" vertex="1" parent="1">
          <mxGeometry x="190" y="170" width="50" height="70" as="geometry" />
        </mxCell>
        <mxCell id="pIM4Py4oEkjCRGaLHzun-43" style="edgeStyle=orthogonalEdgeStyle;rounded=0;orthogonalLoop=1;jettySize=auto;html=1;exitX=1;exitY=0.5;exitDx=0;exitDy=0;exitPerimeter=0;entryX=0.5;entryY=1;entryDx=0;entryDy=0;" edge="1" parent="1" source="pIM4Py4oEkjCRGaLHzun-4" target="pIM4Py4oEkjCRGaLHzun-5">
          <mxGeometry relative="1" as="geometry" />
        </mxCell>
        <mxCell id="pIM4Py4oEkjCRGaLHzun-47" value="10.0.0.4" style="edgeLabel;html=1;align=center;verticalAlign=middle;resizable=0;points=[];" vertex="1" connectable="0" parent="pIM4Py4oEkjCRGaLHzun-43">
          <mxGeometry x="-0.5975" y="2" relative="1" as="geometry">
            <mxPoint x="-1" as="offset" />
          </mxGeometry>
        </mxCell>
        <mxCell id="pIM4Py4oEkjCRGaLHzun-4" value="H4" style="shape=mxgraph.cisco.computers_and_peripherals.ibm_mainframe;sketch=0;html=1;pointerEvents=1;dashed=0;fillColor=#036897;strokeColor=#ffffff;strokeWidth=2;verticalLabelPosition=bottom;verticalAlign=top;align=center;outlineConnect=0;fontSize=22;" vertex="1" parent="1">
          <mxGeometry x="190" y="680" width="50" height="70" as="geometry" />
        </mxCell>
        <mxCell id="pIM4Py4oEkjCRGaLHzun-16" style="edgeStyle=orthogonalEdgeStyle;rounded=0;orthogonalLoop=1;jettySize=auto;html=1;exitX=1;exitY=0.5;exitDx=0;exitDy=0;entryX=0;entryY=0.5;entryDx=0;entryDy=0;" edge="1" parent="1">
          <mxGeometry relative="1" as="geometry">
            <mxPoint x="548.0600000000009" y="459.5" as="sourcePoint" />
            <mxPoint x="688" y="459.5" as="targetPoint" />
          </mxGeometry>
        </mxCell>
        <mxCell id="pIM4Py4oEkjCRGaLHzun-59" value="10.0.1.2/16" style="edgeLabel;html=1;align=center;verticalAlign=middle;resizable=0;points=[];" vertex="1" connectable="0" parent="pIM4Py4oEkjCRGaLHzun-16">
          <mxGeometry x="-0.1433" relative="1" as="geometry">
            <mxPoint as="offset" />
          </mxGeometry>
        </mxCell>
        <mxCell id="pIM4Py4oEkjCRGaLHzun-17" style="edgeStyle=orthogonalEdgeStyle;rounded=0;orthogonalLoop=1;jettySize=auto;html=1;exitX=1;exitY=0.25;exitDx=0;exitDy=0;" edge="1" parent="1" source="pIM4Py4oEkjCRGaLHzun-5" target="pIM4Py4oEkjCRGaLHzun-8">
          <mxGeometry relative="1" as="geometry" />
        </mxCell>
        <mxCell id="pIM4Py4oEkjCRGaLHzun-58" value="10.0.1.1/16" style="edgeLabel;html=1;align=center;verticalAlign=middle;resizable=0;points=[];" vertex="1" connectable="0" parent="pIM4Py4oEkjCRGaLHzun-17">
          <mxGeometry x="-0.6522" relative="1" as="geometry">
            <mxPoint as="offset" />
          </mxGeometry>
        </mxCell>
        <mxCell id="pIM4Py4oEkjCRGaLHzun-18" style="edgeStyle=orthogonalEdgeStyle;rounded=0;orthogonalLoop=1;jettySize=auto;html=1;exitX=1;exitY=0.75;exitDx=0;exitDy=0;entryX=0.5;entryY=0;entryDx=0;entryDy=0;" edge="1" parent="1" source="pIM4Py4oEkjCRGaLHzun-5" target="pIM4Py4oEkjCRGaLHzun-7">
          <mxGeometry relative="1" as="geometry" />
        </mxCell>
        <mxCell id="pIM4Py4oEkjCRGaLHzun-60" value="10.0.1.3/16" style="edgeLabel;html=1;align=center;verticalAlign=middle;resizable=0;points=[];" vertex="1" connectable="0" parent="pIM4Py4oEkjCRGaLHzun-18">
          <mxGeometry x="-0.7565" y="-4" relative="1" as="geometry">
            <mxPoint as="offset" />
          </mxGeometry>
        </mxCell>
        <mxCell id="pIM4Py4oEkjCRGaLHzun-5" value="D" style="image;aspect=fixed;perimeter=ellipsePerimeter;html=1;align=center;shadow=0;dashed=0;spacingTop=3;image=img/lib/active_directory/internet_cloud.svg;verticalAlign=middle;labelPosition=center;verticalLabelPosition=middle;fontSize=31;labelBackgroundColor=none;" vertex="1" parent="1">
          <mxGeometry x="358" y="399" width="192.06" height="121" as="geometry" />
        </mxCell>
        <mxCell id="pIM4Py4oEkjCRGaLHzun-22" style="edgeStyle=orthogonalEdgeStyle;rounded=0;orthogonalLoop=1;jettySize=auto;html=1;exitX=1;exitY=0.5;exitDx=0;exitDy=0;entryX=0;entryY=0.5;entryDx=0;entryDy=0;" edge="1" parent="1" source="pIM4Py4oEkjCRGaLHzun-6">
          <mxGeometry relative="1" as="geometry">
            <mxPoint x="930" y="459.5" as="targetPoint" />
          </mxGeometry>
        </mxCell>
        <mxCell id="pIM4Py4oEkjCRGaLHzun-77" value="30.0.1.2/16" style="edgeLabel;html=1;align=center;verticalAlign=middle;resizable=0;points=[];" vertex="1" connectable="0" parent="pIM4Py4oEkjCRGaLHzun-22">
          <mxGeometry x="-0.2244" y="1" relative="1" as="geometry">
            <mxPoint x="-22" y="1" as="offset" />
          </mxGeometry>
        </mxCell>
        <mxCell id="pIM4Py4oEkjCRGaLHzun-83" value="30.0.0.2/16" style="edgeLabel;html=1;align=center;verticalAlign=middle;resizable=0;points=[];" vertex="1" connectable="0" parent="pIM4Py4oEkjCRGaLHzun-22">
          <mxGeometry x="0.3807" y="3" relative="1" as="geometry">
            <mxPoint x="10" y="3" as="offset" />
          </mxGeometry>
        </mxCell>
        <mxCell id="pIM4Py4oEkjCRGaLHzun-53" style="edgeStyle=orthogonalEdgeStyle;rounded=0;orthogonalLoop=1;jettySize=auto;html=1;exitX=0.5;exitY=0;exitDx=0;exitDy=0;entryX=0;entryY=0.5;entryDx=0;entryDy=0;" edge="1" parent="1" source="pIM4Py4oEkjCRGaLHzun-6" target="pIM4Py4oEkjCRGaLHzun-50">
          <mxGeometry relative="1" as="geometry" />
        </mxCell>
        <mxCell id="pIM4Py4oEkjCRGaLHzun-76" value="30.0.1.1/16" style="edgeLabel;html=1;align=center;verticalAlign=middle;resizable=0;points=[];" vertex="1" connectable="0" parent="pIM4Py4oEkjCRGaLHzun-53">
          <mxGeometry x="0.2094" relative="1" as="geometry">
            <mxPoint x="-85" y="40" as="offset" />
          </mxGeometry>
        </mxCell>
        <mxCell id="pIM4Py4oEkjCRGaLHzun-82" value="30.0.0.1/16" style="edgeLabel;html=1;align=center;verticalAlign=middle;resizable=0;points=[];" vertex="1" connectable="0" parent="pIM4Py4oEkjCRGaLHzun-53">
          <mxGeometry x="0.4197" y="1" relative="1" as="geometry">
            <mxPoint as="offset" />
          </mxGeometry>
        </mxCell>
        <mxCell id="pIM4Py4oEkjCRGaLHzun-64" style="edgeStyle=orthogonalEdgeStyle;rounded=0;orthogonalLoop=1;jettySize=auto;html=1;exitX=0.5;exitY=1;exitDx=0;exitDy=0;entryX=1;entryY=0.5;entryDx=0;entryDy=0;" edge="1" parent="1" source="pIM4Py4oEkjCRGaLHzun-6" target="pIM4Py4oEkjCRGaLHzun-62">
          <mxGeometry relative="1" as="geometry">
            <Array as="points">
              <mxPoint x="730" y="530" />
              <mxPoint x="1040" y="530" />
              <mxPoint x="1040" y="-10" />
            </Array>
          </mxGeometry>
        </mxCell>
        <mxCell id="pIM4Py4oEkjCRGaLHzun-70" value="50.0.1.2/24" style="edgeLabel;html=1;align=center;verticalAlign=middle;resizable=0;points=[];" vertex="1" connectable="0" parent="pIM4Py4oEkjCRGaLHzun-64">
          <mxGeometry x="-0.7974" y="-1" relative="1" as="geometry">
            <mxPoint as="offset" />
          </mxGeometry>
        </mxCell>
        <mxCell id="pIM4Py4oEkjCRGaLHzun-6" value="R2" style="image;html=1;image=img/lib/clip_art/networking/Router_Icon_128x128.png;labelPosition=center;verticalLabelPosition=middle;align=center;verticalAlign=middle;fontSize=22;labelBackgroundColor=none;" vertex="1" parent="1">
          <mxGeometry x="690" y="419.5" width="80" height="80" as="geometry" />
        </mxCell>
        <mxCell id="pIM4Py4oEkjCRGaLHzun-56" style="edgeStyle=orthogonalEdgeStyle;rounded=0;orthogonalLoop=1;jettySize=auto;html=1;exitX=1;exitY=0.5;exitDx=0;exitDy=0;entryX=0;entryY=0.5;entryDx=0;entryDy=0;" edge="1" parent="1" source="pIM4Py4oEkjCRGaLHzun-7" target="pIM4Py4oEkjCRGaLHzun-49">
          <mxGeometry relative="1" as="geometry" />
        </mxCell>
        <mxCell id="pIM4Py4oEkjCRGaLHzun-78" value="40.0.1.1/16" style="edgeLabel;html=1;align=center;verticalAlign=middle;resizable=0;points=[];" vertex="1" connectable="0" parent="pIM4Py4oEkjCRGaLHzun-56">
          <mxGeometry x="-0.7131" y="2" relative="1" as="geometry">
            <mxPoint as="offset" />
          </mxGeometry>
        </mxCell>
        <mxCell id="pIM4Py4oEkjCRGaLHzun-84" value="40.0.0.1/16" style="edgeLabel;html=1;align=center;verticalAlign=middle;resizable=0;points=[];" vertex="1" connectable="0" parent="pIM4Py4oEkjCRGaLHzun-56">
          <mxGeometry x="0.6173" y="-1" relative="1" as="geometry">
            <mxPoint as="offset" />
          </mxGeometry>
        </mxCell>
        <mxCell id="pIM4Py4oEkjCRGaLHzun-57" style="edgeStyle=orthogonalEdgeStyle;rounded=0;orthogonalLoop=1;jettySize=auto;html=1;exitX=0.5;exitY=1;exitDx=0;exitDy=0;entryX=0;entryY=0.5;entryDx=0;entryDy=0;" edge="1" parent="1" source="pIM4Py4oEkjCRGaLHzun-7" target="pIM4Py4oEkjCRGaLHzun-52">
          <mxGeometry relative="1" as="geometry">
            <Array as="points">
              <mxPoint x="620" y="775" />
              <mxPoint x="820" y="775" />
              <mxPoint x="820" y="715" />
            </Array>
          </mxGeometry>
        </mxCell>
        <mxCell id="pIM4Py4oEkjCRGaLHzun-79" value="40.0.1.2/16" style="edgeLabel;html=1;align=center;verticalAlign=middle;resizable=0;points=[];" vertex="1" connectable="0" parent="pIM4Py4oEkjCRGaLHzun-57">
          <mxGeometry x="-0.3333" y="2" relative="1" as="geometry">
            <mxPoint as="offset" />
          </mxGeometry>
        </mxCell>
        <mxCell id="pIM4Py4oEkjCRGaLHzun-85" value="40.0.0.2/16" style="edgeLabel;html=1;align=center;verticalAlign=middle;resizable=0;points=[];" vertex="1" connectable="0" parent="pIM4Py4oEkjCRGaLHzun-57">
          <mxGeometry x="0.6351" y="1" relative="1" as="geometry">
            <mxPoint as="offset" />
          </mxGeometry>
        </mxCell>
        <mxCell id="pIM4Py4oEkjCRGaLHzun-65" style="edgeStyle=orthogonalEdgeStyle;rounded=0;orthogonalLoop=1;jettySize=auto;html=1;exitX=0;exitY=0.5;exitDx=0;exitDy=0;entryX=0.5;entryY=0;entryDx=0;entryDy=0;" edge="1" parent="1" source="pIM4Py4oEkjCRGaLHzun-7" target="pIM4Py4oEkjCRGaLHzun-62">
          <mxGeometry relative="1" as="geometry">
            <Array as="points">
              <mxPoint x="540" y="715" />
              <mxPoint x="540" y="810" />
              <mxPoint x="1080" y="810" />
              <mxPoint x="1080" y="-90" />
              <mxPoint x="746" y="-90" />
            </Array>
          </mxGeometry>
        </mxCell>
        <mxCell id="pIM4Py4oEkjCRGaLHzun-68" value="50.0.1.3/24" style="edgeLabel;html=1;align=center;verticalAlign=middle;resizable=0;points=[];" vertex="1" connectable="0" parent="pIM4Py4oEkjCRGaLHzun-65">
          <mxGeometry x="-0.7877" y="1" relative="1" as="geometry">
            <mxPoint as="offset" />
          </mxGeometry>
        </mxCell>
        <mxCell id="pIM4Py4oEkjCRGaLHzun-7" value="R3" style="image;html=1;image=img/lib/clip_art/networking/Router_Icon_128x128.png;labelBackgroundColor=none;labelPosition=center;verticalLabelPosition=middle;align=center;verticalAlign=middle;fontSize=22;" vertex="1" parent="1">
          <mxGeometry x="580" y="675" width="80" height="80" as="geometry" />
        </mxCell>
        <mxCell id="pIM4Py4oEkjCRGaLHzun-54" style="edgeStyle=orthogonalEdgeStyle;rounded=0;orthogonalLoop=1;jettySize=auto;html=1;exitX=1;exitY=0.5;exitDx=0;exitDy=0;entryX=0;entryY=0.5;entryDx=0;entryDy=0;" edge="1" parent="1" source="pIM4Py4oEkjCRGaLHzun-8" target="pIM4Py4oEkjCRGaLHzun-48">
          <mxGeometry relative="1" as="geometry" />
        </mxCell>
        <mxCell id="pIM4Py4oEkjCRGaLHzun-75" value="20.0.1.2/16" style="edgeLabel;html=1;align=center;verticalAlign=middle;resizable=0;points=[];" vertex="1" connectable="0" parent="pIM4Py4oEkjCRGaLHzun-54">
          <mxGeometry x="-0.2099" y="-3" relative="1" as="geometry">
            <mxPoint x="-56" y="-3" as="offset" />
          </mxGeometry>
        </mxCell>
        <mxCell id="pIM4Py4oEkjCRGaLHzun-81" value="20.0.0.2/16" style="edgeLabel;html=1;align=center;verticalAlign=middle;resizable=0;points=[];" vertex="1" connectable="0" parent="pIM4Py4oEkjCRGaLHzun-54">
          <mxGeometry x="0.5524" relative="1" as="geometry">
            <mxPoint as="offset" />
          </mxGeometry>
        </mxCell>
        <mxCell id="pIM4Py4oEkjCRGaLHzun-63" style="edgeStyle=orthogonalEdgeStyle;rounded=0;orthogonalLoop=1;jettySize=auto;html=1;exitX=0.5;exitY=0;exitDx=0;exitDy=0;entryX=0.5;entryY=1;entryDx=0;entryDy=0;" edge="1" parent="1" source="pIM4Py4oEkjCRGaLHzun-8" target="pIM4Py4oEkjCRGaLHzun-62">
          <mxGeometry relative="1" as="geometry" />
        </mxCell>
        <mxCell id="pIM4Py4oEkjCRGaLHzun-72" value="5&lt;span style=&quot;background-color: light-dark(#ffffff, var(--ge-dark-color, #121212)); color: light-dark(rgb(0, 0, 0), rgb(255, 255, 255));&quot;&gt;0.0.1.1/24&lt;/span&gt;" style="edgeLabel;html=1;align=center;verticalAlign=middle;resizable=0;points=[];" vertex="1" connectable="0" parent="pIM4Py4oEkjCRGaLHzun-63">
          <mxGeometry x="-0.0083" y="3" relative="1" as="geometry">
            <mxPoint as="offset" />
          </mxGeometry>
        </mxCell>
        <mxCell id="pIM4Py4oEkjCRGaLHzun-8" value="R1" style="image;html=1;image=img/lib/clip_art/networking/Router_Icon_128x128.png;labelBackgroundColor=none;labelPosition=center;verticalLabelPosition=middle;align=center;verticalAlign=middle;fontSize=22;" vertex="1" parent="1">
          <mxGeometry x="580" y="165" width="80" height="80" as="geometry" />
        </mxCell>
        <mxCell id="pIM4Py4oEkjCRGaLHzun-14" value="c" style="image;aspect=fixed;perimeter=ellipsePerimeter;html=1;align=center;shadow=0;dashed=0;spacingTop=3;image=img/lib/active_directory/domain_controller.svg;labelPosition=center;verticalLabelPosition=middle;verticalAlign=middle;labelBackgroundColor=none;spacingLeft=20;fontSize=22;" vertex="1" parent="1">
          <mxGeometry x="470" y="-63.07999999999997" width="75" height="107.15" as="geometry" />
        </mxCell>
        <mxCell id="pIM4Py4oEkjCRGaLHzun-24" value="S1" style="image;aspect=fixed;perimeter=ellipsePerimeter;html=1;align=center;shadow=0;dashed=0;spacingTop=3;image=img/lib/active_directory/generic_server.svg;labelPosition=center;verticalLabelPosition=middle;verticalAlign=middle;labelBackgroundColor=none;spacingLeft=17;fontSize=22;" vertex="1" parent="1">
          <mxGeometry x="930" y="27.150000000000006" width="56" height="100" as="geometry" />
        </mxCell>
        <mxCell id="pIM4Py4oEkjCRGaLHzun-25" style="edgeStyle=orthogonalEdgeStyle;rounded=0;orthogonalLoop=1;jettySize=auto;html=1;exitX=1;exitY=0.25;exitDx=0;exitDy=0;strokeColor=default;endArrow=none;startFill=0;" edge="1" parent="1" source="pIM4Py4oEkjCRGaLHzun-8">
          <mxGeometry relative="1" as="geometry">
            <mxPoint x="925" y="77" as="targetPoint" />
            <Array as="points">
              <mxPoint x="660" y="170" />
              <mxPoint x="910" y="170" />
              <mxPoint x="910" y="77" />
            </Array>
          </mxGeometry>
        </mxCell>
        <mxCell id="pIM4Py4oEkjCRGaLHzun-74" value="20.0.1.1/16" style="edgeLabel;html=1;align=center;verticalAlign=middle;resizable=0;points=[];" vertex="1" connectable="0" parent="pIM4Py4oEkjCRGaLHzun-25">
          <mxGeometry x="-0.431" y="2" relative="1" as="geometry">
            <mxPoint x="-41" y="2" as="offset" />
          </mxGeometry>
        </mxCell>
        <mxCell id="pIM4Py4oEkjCRGaLHzun-80" value="20.0.0.1/16" style="edgeLabel;html=1;align=center;verticalAlign=middle;resizable=0;points=[];" vertex="1" connectable="0" parent="pIM4Py4oEkjCRGaLHzun-25">
          <mxGeometry x="0.208" y="2" relative="1" as="geometry">
            <mxPoint as="offset" />
          </mxGeometry>
        </mxCell>
        <mxCell id="pIM4Py4oEkjCRGaLHzun-41" style="edgeStyle=orthogonalEdgeStyle;rounded=0;orthogonalLoop=1;jettySize=auto;html=1;exitX=1;exitY=0.5;exitDx=0;exitDy=0;exitPerimeter=0;entryX=0;entryY=0.75;entryDx=0;entryDy=0;" edge="1" parent="1" source="pIM4Py4oEkjCRGaLHzun-2" target="pIM4Py4oEkjCRGaLHzun-5">
          <mxGeometry relative="1" as="geometry" />
        </mxCell>
        <mxCell id="pIM4Py4oEkjCRGaLHzun-46" value="10.0.0.3" style="edgeLabel;html=1;align=center;verticalAlign=middle;resizable=0;points=[];" vertex="1" connectable="0" parent="pIM4Py4oEkjCRGaLHzun-41">
          <mxGeometry x="-0.6525" y="-5" relative="1" as="geometry">
            <mxPoint x="1" as="offset" />
          </mxGeometry>
        </mxCell>
        <mxCell id="pIM4Py4oEkjCRGaLHzun-48" value="S2" style="image;aspect=fixed;perimeter=ellipsePerimeter;html=1;align=center;shadow=0;dashed=0;spacingTop=3;image=img/lib/active_directory/generic_server.svg;labelPosition=center;verticalLabelPosition=middle;verticalAlign=middle;labelBackgroundColor=none;spacingLeft=17;fontSize=22;" vertex="1" parent="1">
          <mxGeometry x="930" y="155" width="56" height="100" as="geometry" />
        </mxCell>
        <mxCell id="pIM4Py4oEkjCRGaLHzun-49" value="S5" style="image;aspect=fixed;perimeter=ellipsePerimeter;html=1;align=center;shadow=0;dashed=0;spacingTop=3;image=img/lib/active_directory/generic_server.svg;labelPosition=center;verticalLabelPosition=middle;verticalAlign=middle;labelBackgroundColor=none;spacingLeft=17;fontSize=22;" vertex="1" parent="1">
          <mxGeometry x="930" y="540" width="56" height="100" as="geometry" />
        </mxCell>
        <mxCell id="pIM4Py4oEkjCRGaLHzun-50" value="S3" style="image;aspect=fixed;perimeter=ellipsePerimeter;html=1;align=center;shadow=0;dashed=0;spacingTop=3;image=img/lib/active_directory/generic_server.svg;labelPosition=center;verticalLabelPosition=middle;verticalAlign=middle;labelBackgroundColor=none;spacingLeft=17;fontSize=22;" vertex="1" parent="1">
          <mxGeometry x="930" y="280" width="56" height="100" as="geometry" />
        </mxCell>
        <mxCell id="pIM4Py4oEkjCRGaLHzun-51" value="S4" style="image;aspect=fixed;perimeter=ellipsePerimeter;html=1;align=center;shadow=0;dashed=0;spacingTop=3;image=img/lib/active_directory/generic_server.svg;labelPosition=center;verticalLabelPosition=middle;verticalAlign=middle;labelBackgroundColor=none;spacingLeft=17;fontSize=22;" vertex="1" parent="1">
          <mxGeometry x="930" y="409.5" width="56" height="100" as="geometry" />
        </mxCell>
        <mxCell id="pIM4Py4oEkjCRGaLHzun-52" value="S6" style="image;aspect=fixed;perimeter=ellipsePerimeter;html=1;align=center;shadow=0;dashed=0;spacingTop=3;image=img/lib/active_directory/generic_server.svg;labelPosition=center;verticalLabelPosition=middle;verticalAlign=middle;labelBackgroundColor=none;spacingLeft=17;fontSize=22;" vertex="1" parent="1">
          <mxGeometry x="930" y="665" width="56" height="100" as="geometry" />
        </mxCell>
        <mxCell id="pIM4Py4oEkjCRGaLHzun-66" style="edgeStyle=orthogonalEdgeStyle;rounded=0;orthogonalLoop=1;jettySize=auto;html=1;exitX=0;exitY=0.5;exitDx=0;exitDy=0;entryX=1;entryY=0.5;entryDx=0;entryDy=0;" edge="1" parent="1" source="pIM4Py4oEkjCRGaLHzun-62" target="pIM4Py4oEkjCRGaLHzun-14">
          <mxGeometry relative="1" as="geometry" />
        </mxCell>
        <mxCell id="pIM4Py4oEkjCRGaLHzun-67" value="50.0.1.4/24" style="edgeLabel;html=1;align=center;verticalAlign=middle;resizable=0;points=[];" vertex="1" connectable="0" parent="pIM4Py4oEkjCRGaLHzun-66">
          <mxGeometry x="-0.0857" y="1" relative="1" as="geometry">
            <mxPoint as="offset" />
          </mxGeometry>
        </mxCell>
        <mxCell id="pIM4Py4oEkjCRGaLHzun-62" value="50.0.1.0/24" style="image;aspect=fixed;perimeter=ellipsePerimeter;html=1;align=center;shadow=0;dashed=0;spacingTop=3;image=img/lib/active_directory/internet_cloud.svg;verticalAlign=middle;labelPosition=center;verticalLabelPosition=middle;fontSize=31;labelBackgroundColor=none;" vertex="1" parent="1">
          <mxGeometry x="650" y="-70" width="192.06" height="121" as="geometry" />
        </mxCell>
      </root>
    </mxGraphModel>
  </diagram>
</mxfile>
